<?xml version="1.0" encoding="utf-8"?>
<!-- Generator: Adobe Illustrator 19.0.0, SVG Export Plug-In . SVG Version: 6.00 Build 0)  -->
<svg version="1.1" id="Layer_1" xmlns="http://www.w3.org/2000/svg" xmlns:xlink="http://www.w3.org/1999/xlink" x="0px" y="0px"
	 viewBox="0 0 424 456.2" style="enable-background:new 0 0 424 456.2;" xml:space="preserve">
<style type="text/css">
	.st0{enable-background:new    ;}
	.st1{fill:#4D828A;}
	.st2{fill:#50868F;}
	.st3{fill:#538B94;}
	.st4{fill:#569099;}
	.st5{fill:#59959E;}
	.st6{fill:#5C9AA3;}
	.st7{fill:#5E9EA8;}
	.st8{fill:#4A7D85;}
	.st9{fill:#ECECEC;}
	.st10{fill:#84DEEC;}
	.st11{clip-path:url(#XMLID_108_);enable-background:new    ;}
	.st12{clip-path:url(#XMLID_109_);enable-background:new    ;}
	.st13{clip-path:url(#XMLID_110_);enable-background:new    ;}
	.st14{fill:#558F98;}
	.st15{fill:#63A5B0;}
	.st16{clip-path:url(#XMLID_111_);enable-background:new    ;}
	.st17{fill:#F4F4F4;}
	.st18{fill:#949494;}
</style>
<g id="Browser">
	<g id="XMLID_270_" class="st0">
		<path id="XMLID_279_" class="st1" d="M166.9,253.3l19.7-11.5c0,0,0,0.1,0,0.1L166.9,253.3C166.9,253.4,166.9,253.3,166.9,253.3"/>
		<path id="XMLID_278_" class="st2" d="M166.9,253.4l19.7-11.5c0,0.1,0,0.3,0,0.4L167,253.8C166.9,253.6,166.9,253.5,166.9,253.4"/>
		<path id="XMLID_277_" class="st3" d="M167,253.8l19.7-11.5c0,0.1,0,0.3,0.1,0.5l-19.7,11.5C167,254.1,167,253.9,167,253.8"/>
		<path id="XMLID_276_" class="st4" d="M167.1,254.2l19.7-11.5c0,0.2,0.1,0.4,0.2,0.5l-19.7,11.5
			C167.1,254.6,167.1,254.4,167.1,254.2"/>
		<path id="XMLID_275_" class="st5" d="M167.2,254.8l19.7-11.5c0.1,0.2,0.2,0.5,0.3,0.8l-19.7,11.5
			C167.4,255.3,167.3,255,167.2,254.8"/>
		<path id="XMLID_274_" class="st6" d="M167.5,255.5l19.7-11.5c0.2,0.4,0.4,0.9,0.7,1.3l-19.7,11.5
			C167.9,256.4,167.7,256,167.5,255.5"/>
		<path id="XMLID_273_" class="st7" d="M168.2,256.9l19.7-11.5c0.7,1.1,1.6,2.2,2.4,3l-19.7,11.5C169.8,259.1,168.9,258,168.2,256.9
			"/>
	</g>
	<path id="XMLID_4_" class="st8" d="M312.6,341.6C312.6,341.6,312.6,341.6,312.6,341.6c-0.2,0-0.3,0-0.4,0c0,0-0.1,0-0.1,0
		c-0.1,0-0.2-0.1-0.3-0.1c-0.1,0-0.1,0-0.2-0.1c-0.2-0.1-0.4-0.2-0.6-0.3l-82.4-47.6c-0.2-0.1-0.4-0.3-0.6-0.4
		c-0.1-0.1-0.2-0.1-0.3-0.2c-0.1-0.1-0.3-0.2-0.4-0.3c-0.1-0.1-0.2-0.2-0.3-0.2c-0.2-0.2-0.4-0.4-0.6-0.6c0,0,0,0,0,0
		c-0.2-0.2-0.4-0.4-0.6-0.7c-0.1-0.1-0.1-0.1-0.2-0.2c-0.2-0.2-0.3-0.4-0.4-0.6c0,0-0.1-0.1-0.1-0.1c-0.2-0.3-0.3-0.5-0.4-0.8
		c0,0,0,0,0,0c-0.1-0.3-0.2-0.6-0.3-0.9c0,0,0,0,0,0c-0.1-0.3-0.1-0.6-0.1-0.9l0.1-19.4l-32.8-18.9c-0.1-0.1-0.2-0.1-0.3-0.2
		c-0.1-0.1-0.2-0.1-0.2-0.2c-0.1,0-0.1-0.1-0.2-0.1c-0.1-0.1-0.2-0.1-0.2-0.2c-1.8-1.6-3.8-4.7-3.8-6.7l0.1-27.2l-33-19.1
		c-0.2-0.1-0.3-0.2-0.4-0.3c-0.2-0.1-0.4-0.3-0.6-0.4c-0.1-0.1-0.2-0.2-0.3-0.2c-0.2-0.2-0.5-0.5-0.7-0.7c0,0-0.1-0.1-0.1-0.1
		c-0.2-0.3-0.5-0.6-0.7-1c-0.1-0.1-0.1-0.2-0.2-0.4c-0.1-0.2-0.2-0.3-0.3-0.5c-0.1-0.2-0.2-0.4-0.3-0.7c0,0,0-0.1,0-0.1
		c-0.1-0.3-0.2-0.5-0.2-0.8c0-0.1,0-0.1,0-0.2c0-0.3-0.1-0.5-0.1-0.8l0.2-53.8c0-0.2,0-0.4,0.1-0.6c0-0.1,0-0.2,0.1-0.2
		c0-0.1,0.1-0.3,0.1-0.4c0-0.1,0.1-0.1,0.1-0.2c0.1-0.1,0.1-0.2,0.2-0.3c0,0,0.1-0.1,0.1-0.1c0.1-0.1,0.3-0.2,0.4-0.3l0,0
		c0,0,0,0,0,0l-19.7,11.5c-0.2,0.1-0.3,0.2-0.4,0.3c0,0-0.1,0.1-0.1,0.1c-0.1,0.1-0.2,0.2-0.2,0.3c0,0.1-0.1,0.1-0.1,0.2
		c-0.1,0.1-0.1,0.2-0.1,0.4c0,0.1,0,0.2-0.1,0.2c0,0,0,0.1,0,0.1c0,0.2,0,0.3,0,0.5l-0.2,53.8c0,0,0,0.1,0,0.1c0,0.2,0,0.4,0,0.5
		c0,0.1,0,0.1,0,0.2c0,0.1,0,0.1,0,0.2c0,0.1,0,0.1,0,0.2c0,0.2,0.1,0.4,0.2,0.5c0,0,0,0,0,0c0,0,0,0.1,0,0.1
		c0.1,0.2,0.1,0.4,0.2,0.5c0,0,0,0.1,0.1,0.1c0.1,0.2,0.2,0.3,0.3,0.5c0.1,0.1,0.1,0.2,0.1,0.3c0,0,0,0.1,0.1,0.1
		c0.2,0.3,0.4,0.7,0.7,1c0,0,0.1,0.1,0.1,0.1c0.2,0.3,0.4,0.5,0.7,0.7c0,0,0.1,0.1,0.1,0.1c0.1,0,0.1,0.1,0.2,0.1
		c0.2,0.2,0.4,0.3,0.6,0.4c0.1,0,0.1,0.1,0.2,0.1c0.1,0.1,0.2,0.1,0.3,0.2l33,19.1l-0.1,27.2c0,1.9,1.9,4.9,3.7,6.6l0,0
		c0,0,0.1,0.1,0.1,0.1c0.1,0.1,0.2,0.1,0.2,0.2c0.1,0,0.1,0.1,0.2,0.1c0.1,0.1,0.2,0.1,0.2,0.2c0,0,0.1,0,0.1,0.1
		c0.1,0,0.1,0.1,0.2,0.1l32.6,18.9L204,299c0,0,0,0.1,0,0.1c0,0.1,0.2,0.3,0.3,0.4c0,0.1,0.2,0.2,0.2,0.4c0,0,0.1,0,0.1,0
		c0,0,0,0,0,0c0,0.1,0.1,0.3,0.1,0.4c0,0.1,0.1,0.3,0.2,0.4c0,0,0,0,0,0c0,0,0,0,0,0c0.1,0.3,0.2,0.5,0.4,0.7c0,0,0,0,0,0.1
		c0,0,0.1,0.1,0.1,0.1c0.1,0.2,0.3,0.4,0.4,0.6c0.1,0.1,0.1,0.1,0.2,0.2c0.2,0.2,0.4,0.5,0.6,0.7c0,0,0,0,0,0
		c0.2,0.2,0.3,0.3,0.5,0.5c0,0,0.1,0.1,0.1,0.1c0.1,0.1,0.2,0.2,0.3,0.2c0.1,0.1,0.3,0.2,0.4,0.3c0.1,0.1,0.2,0.1,0.3,0.2
		c0.1,0,0.1,0.1,0.2,0.1c0.1,0.1,0.3,0.2,0.4,0.2l82.4,47.6c0.2,0.1,0.3,0.2,0.5,0.3c0,0,0.1,0,0.1,0c0.1,0,0.1,0.1,0.2,0.1
		c0.1,0,0.1,0.1,0.2,0.1c0,0,0.1,0,0.1,0c0,0,0.1,0,0.1,0c0,0,0.1,0,0.1,0c0.1,0,0.2,0,0.3,0c0,0,0,0,0,0c0,0,0,0,0.1,0
		c0.1,0,0.1,0,0.2,0c0,0,0.1,0,0.1-0.1l19.7-11.5C312.8,341.5,312.7,341.6,312.6,341.6z"/>
	<g id="XMLID_45_">
		<path id="XMLID_46_" class="st9" d="M371.8,212.9c1.3,0.8,2.4,2.6,2.4,4.2l0,17.3c0,1.5-1.1,2.1-2.4,1.4l-266-153.6
			c-1.3-0.8-2.4-2.6-2.4-4.2l0-17.3c0-1.5,1.1-2.2,2.4-1.4L371.8,212.9z"/>
	</g>
	<g id="XMLID_39_">
		<path id="XMLID_40_" class="st10" d="M373.1,203.9c4.7,2.7,8.5,9.3,8.5,14.7L381,437.8c0,5.4-3.8,7.6-8.5,4.9L68.1,267
			c-4.7-2.7-8.5-9.3-8.5-14.7L60.3,33c0-5.4,3.8-7.6,8.5-4.9L373.1,203.9z M293.8,350.6l0.2-53.8c0-2.3-0.6-5-2.6-6.2l-34.3-19.8
			l0.1-19.3c0-2.3-0.9-4.9-2.9-6.1l-33.9-19.6l0.1-26.8c0-2.3-1.8-5.3-3.9-6.4l-82.4-47.6c-2-1.2-3.9-0.3-3.9,2l-0.2,53.8
			c0,2.3,1.8,5,3.9,6.2l33,19.1l-0.1,27.2c0,2.3,2.8,6.2,4.8,7.4l32.8,18.9l-0.1,19.4c0,2.3,2.4,4.8,4.4,6l82.4,47.6
			C293.3,353.7,293.8,352.9,293.8,350.6 M374.2,234.4l0-17.3c0-1.5-1.1-3.4-2.4-4.2l-266-153.6c-1.3-0.8-2.4-0.2-2.4,1.4l0,17.3
			c0,1.5,1.1,3.4,2.4,4.2l266,153.6C373.1,236.6,374.2,235.9,374.2,234.4 M99.9,74.9l0-14.9c0-2.2-1.5-4.9-3.4-6L72.6,40.2
			c-1.9-1.1-3.5-0.2-3.5,2l0,14.9c0,2.2,1.5,4.9,3.4,6l23.9,13.8C98.3,77.9,99.9,77,99.9,74.9"/>
	</g>
	<g id="XMLID_37_">
		<path id="XMLID_38_" class="st9" d="M96.5,54c1.9,1.1,3.4,3.8,3.4,6l0,14.9c0,2.2-1.6,3.1-3.5,2L72.6,63.1c-1.9-1.1-3.4-3.8-3.4-6
			l0-14.9c0-2.2,1.6-3.1,3.5-2L96.5,54z"/>
	</g>
	<g id="XMLID_7_">
		<g id="XMLID_203_" class="st0">
			<defs>
				<path id="XMLID_211_" class="st0" d="M62.7,27.6l19.7-11.5c1.5-0.9,3.7-0.8,6.1,0.6L68.8,28.2C66.4,26.8,64.3,26.7,62.7,27.6z"
					/>
			</defs>
			<clipPath id="XMLID_108_">
				<use xlink:href="#XMLID_211_"  style="overflow:visible;"/>
			</clipPath>
			<g id="XMLID_204_" class="st11">
				<path id="XMLID_210_" class="st8" d="M62.7,27.6l19.7-11.5c0.2-0.1,0.4-0.2,0.7-0.3L63.4,27.3C63.2,27.3,63,27.4,62.7,27.6"/>
				<path id="XMLID_209_" class="st1" d="M63.4,27.3l19.7-11.5c0.4-0.1,0.8-0.2,1.2-0.2L64.6,27C64.2,27,63.8,27.1,63.4,27.3"/>
				<path id="XMLID_208_" class="st2" d="M64.6,27l19.7-11.5c0.4,0,0.7,0,1.1,0L65.7,27.1C65.4,27,65,27,64.6,27"/>
				<path id="XMLID_207_" class="st3" d="M65.7,27.1l19.7-11.5c0.4,0,0.7,0.1,1.1,0.2L66.8,27.3C66.5,27.2,66.1,27.1,65.7,27.1"/>
				<path id="XMLID_206_" class="st4" d="M66.8,27.3l19.7-11.5c0.4,0.1,0.8,0.3,1.2,0.5L68,27.7C67.6,27.6,67.2,27.4,66.8,27.3"/>
				<path id="XMLID_205_" class="st5" d="M68,27.7l19.7-11.5c0.3,0.1,0.5,0.3,0.8,0.4L68.8,28.2C68.5,28,68.3,27.9,68,27.7"/>
			</g>
		</g>
		<g id="XMLID_69_" class="st0">
			<defs>
				<path id="XMLID_131_" class="st0" d="M393.2,224.5L373.5,236c-0.4,0.3-1,0.2-1.7-0.2l19.7-11.5
					C392.2,224.7,392.8,224.8,393.2,224.5z"/>
			</defs>
			<clipPath id="XMLID_109_">
				<use xlink:href="#XMLID_131_"  style="overflow:visible;"/>
			</clipPath>
			<g id="XMLID_71_" class="st12">
				<path id="XMLID_130_" class="st5" d="M371.8,235.8l19.7-11.5c0.1,0,0.2,0.1,0.2,0.1L372,235.9
					C371.9,235.9,371.9,235.8,371.8,235.8"/>
				<path id="XMLID_129_" class="st4" d="M372,235.9l19.7-11.5c0.1,0.1,0.2,0.1,0.3,0.1L372.3,236C372.2,236,372.1,236,372,235.9"/>
				<path id="XMLID_128_" class="st3" d="M372.3,236l19.7-11.5c0.1,0,0.2,0.1,0.3,0.1l-19.7,11.5C372.5,236.1,372.4,236.1,372.3,236
					"/>
				<path id="XMLID_78_" class="st2" d="M372.6,236.1l19.7-11.5c0.1,0,0.2,0,0.3,0L373,236.1C372.9,236.1,372.7,236.1,372.6,236.1"
					/>
				<path id="XMLID_77_" class="st1" d="M373,236.1l19.7-11.5c0.1,0,0.2,0,0.3-0.1l-19.7,11.5C373.2,236.1,373.1,236.1,373,236.1"/>
				<path id="XMLID_76_" class="st8" d="M373.3,236.1l19.7-11.5c0.1,0,0.1-0.1,0.2-0.1L373.5,236C373.4,236,373.4,236,373.3,236.1"
					/>
			</g>
		</g>
		<g id="XMLID_32_" class="st0">
			<defs>
				<path id="XMLID_36_" class="st0" d="M398.3,431.8l-19.7,11.5c1.5-0.9,2.5-2.8,2.5-5.5l19.7-11.5
					C400.7,429.1,399.8,430.9,398.3,431.8z"/>
			</defs>
			<clipPath id="XMLID_110_">
				<use xlink:href="#XMLID_36_"  style="overflow:visible;"/>
			</clipPath>
			<g id="XMLID_33_" class="st13">
				<path id="XMLID_35_" class="st1" d="M381,437.8l19.7-11.5c0,0.5,0,0.9-0.1,1.3l-19.7,11.5C381,438.8,381,438.3,381,437.8"/>
				<path id="XMLID_34_" class="st8" d="M380.9,439.2l19.7-11.5c-0.3,2-1.1,3.4-2.4,4.1l-19.7,11.5
					C379.8,442.6,380.6,441.2,380.9,439.2"/>
			</g>
		</g>
		<g id="XMLID_30_">
			<polygon id="XMLID_31_" class="st14" points="381.6,218.6 401.4,207.1 400.7,426.4 381,437.8 			"/>
		</g>
		<g id="XMLID_28_">
			<polygon id="XMLID_29_" class="st15" points="68.8,28.2 88.5,16.7 392.9,192.4 373.1,203.9 			"/>
		</g>
		<g id="XMLID_10_" class="st0">
			<defs>
				<path id="XMLID_27_" class="st0" d="M373.1,203.9l19.7-11.5c4.7,2.7,8.5,9.3,8.5,14.7l-19.7,11.5
					C381.6,213.2,377.8,206.6,373.1,203.9z"/>
			</defs>
			<clipPath id="XMLID_111_">
				<use xlink:href="#XMLID_27_"  style="overflow:visible;"/>
			</clipPath>
			<g id="XMLID_13_" class="st16">
				<path id="XMLID_26_" class="st5" d="M373.1,203.9l19.7-11.5c0.2,0.1,0.4,0.2,0.5,0.3l-19.7,11.5
					C373.5,204.1,373.3,204,373.1,203.9"/>
				<path id="XMLID_24_" class="st6" d="M373.7,204.2l19.7-11.5c0.6,0.4,1.2,0.9,1.8,1.4l-19.7,11.5
					C374.9,205.1,374.3,204.6,373.7,204.2"/>
				<path id="XMLID_21_" class="st7" d="M375.5,205.6l19.7-11.5c1.3,1.2,2.5,2.6,3.5,4.2l-19.7,11.5
					C378,208.3,376.8,206.8,375.5,205.6"/>
				<path id="XMLID_20_" class="st6" d="M378.9,209.8l19.7-11.5c0.4,0.7,0.8,1.5,1.2,2.3l-19.7,11.5
					C379.8,211.4,379.4,210.6,378.9,209.8"/>
				<path id="XMLID_18_" class="st5" d="M380.1,212.1l19.7-11.5c0.2,0.6,0.5,1.1,0.7,1.7l-19.7,11.5
					C380.6,213.3,380.4,212.7,380.1,212.1"/>
				<path id="XMLID_17_" class="st4" d="M380.8,213.8l19.7-11.5c0.2,0.5,0.3,1,0.4,1.5l-19.7,11.5
					C381.1,214.8,381,214.3,380.8,213.8"/>
				<path id="XMLID_16_" class="st3" d="M381.2,215.3l19.7-11.5c0.1,0.5,0.2,1,0.3,1.4l-19.7,11.5
					C381.4,216.3,381.3,215.8,381.2,215.3"/>
				<path id="XMLID_15_" class="st2" d="M381.5,216.8l19.7-11.5c0.1,0.5,0.1,1,0.1,1.5l-19.7,11.5
					C381.6,217.8,381.6,217.3,381.5,216.8"/>
				<path id="XMLID_14_" class="st1" d="M381.6,218.3l19.7-11.5c0,0.1,0,0.2,0,0.3l-19.7,11.5C381.6,218.5,381.6,218.4,381.6,218.3"
					/>
			</g>
		</g>
	</g>
</g>
<g id="logo">
	<g id="XMLID_72_">
		<path id="XMLID_73_" class="st17" d="M133.9,230.5c2,1.2,4.1,4.2,4,6.6l-0.1,26.8l33.7,19.5c2,1.2,3.1,3.9,3.1,6.2l-0.1,19.3
			l34.1,19.7c2,1.2,2.8,4,2.8,6.3l-0.2,53.8c0,2.3-0.8,3-2.8,1.8l-82.4-47.6c-2-1.2-4.2-3.6-4.2-5.9l0.1-19.4l-33-19.1
			c-2-1.2-4.6-4.9-4.6-7.3l0.1-27.2l-33.2-19.2c-2-1.2-3.7-3.7-3.7-6.1l0.2-53.8c0-2.3,1.7-3.3,3.7-2.1L133.9,230.5z"/>
	</g>
	<path id="XMLID_3_" class="st18" d="M231.1,378c0-0.1,0-0.1,0-0.2c0-0.2,0-0.5,0-0.7l0.2-53.8c0-0.3,0-0.6,0-0.9c0-0.1,0-0.2,0-0.3
		c0-0.2,0-0.4-0.1-0.6c0-0.1,0-0.2-0.1-0.3c0-0.2-0.1-0.4-0.1-0.6c0-0.1-0.1-0.2-0.1-0.4c-0.1-0.2-0.1-0.3-0.2-0.5c0,0,0,0,0,0
		c-0.1-0.3-0.3-0.6-0.4-0.9c0,0,0,0,0-0.1c-0.1-0.1-0.1-0.2-0.2-0.3c-0.1-0.1-0.2-0.2-0.2-0.4c0,0,0,0,0-0.1
		c-0.1-0.1-0.2-0.2-0.3-0.3c-0.1-0.1-0.1-0.1-0.2-0.2c-0.2-0.2-0.4-0.4-0.7-0.5l-34.1-19.7l0.1-19.3c0-0.3,0-0.5,0-0.8
		c0-0.1,0-0.2,0-0.3c0-0.2-0.1-0.4-0.1-0.6c0-0.1,0-0.2-0.1-0.3c0-0.2-0.1-0.4-0.2-0.5c0-0.1-0.1-0.2-0.1-0.3c0,0,0-0.1,0-0.1
		c0-0.1-0.1-0.1-0.1-0.2c-0.1-0.3-0.2-0.5-0.4-0.8c0-0.1-0.1-0.1-0.1-0.2c0,0-0.1-0.1-0.1-0.1c-0.1-0.2-0.2-0.4-0.4-0.6
		c-0.1-0.1-0.1-0.1-0.1-0.2c0,0,0,0-0.1-0.1c-0.1-0.2-0.3-0.3-0.4-0.4c-0.1-0.1-0.1-0.2-0.2-0.2c-0.2-0.2-0.5-0.4-0.7-0.5
		l-33.7-19.5l0.1-26.8c0-0.3,0-0.5-0.1-0.8c0,0,0-0.1,0-0.1c-0.1-0.3-0.1-0.5-0.2-0.8c0,0,0-0.1,0-0.1c0,0,0-0.1-0.1-0.1
		c-0.1-0.2-0.2-0.5-0.3-0.7c0,0,0-0.1-0.1-0.1c-0.1-0.2-0.2-0.3-0.3-0.5c0-0.1-0.1-0.1-0.1-0.2c-0.1-0.1-0.1-0.2-0.2-0.3
		c-0.1-0.2-0.3-0.4-0.4-0.6c-0.1-0.1-0.1-0.1-0.2-0.2c0,0,0-0.1-0.1-0.1c-0.2-0.2-0.4-0.4-0.5-0.6c0,0-0.1-0.1-0.1-0.1
		c-0.2-0.2-0.4-0.3-0.5-0.5c-0.1-0.1-0.1-0.1-0.2-0.1c-0.2-0.2-0.4-0.3-0.7-0.5l-82.4-47.6c-1-0.6-1.9-0.6-2.6-0.2l-19.7,11.5
		c0.7-0.4,1.6-0.3,2.6,0.2l82.4,47.6c0.2,0.1,0.5,0.3,0.7,0.5c0.1,0,0.1,0.1,0.2,0.1c0.2,0.2,0.4,0.3,0.5,0.5c0,0,0.1,0.1,0.1,0.1
		c0.2,0.2,0.4,0.4,0.6,0.7c0.1,0.1,0.1,0.1,0.2,0.2c0.1,0.2,0.3,0.4,0.4,0.6c0.1,0.1,0.1,0.2,0.2,0.3c0.1,0.2,0.3,0.5,0.4,0.7
		c0,0,0,0.1,0.1,0.1c0.1,0.3,0.3,0.6,0.4,0.9c0,0,0,0.1,0,0.1c0.1,0.3,0.2,0.6,0.2,0.8c0,0,0,0.1,0,0.1c0.1,0.3,0.1,0.6,0.1,0.8
		l-0.1,26.8l33.7,19.5c0.3,0.2,0.5,0.3,0.7,0.5c0.1,0.1,0.1,0.1,0.2,0.2c0.1,0.1,0.3,0.3,0.4,0.4c0.1,0.1,0.1,0.2,0.2,0.3
		c0.1,0.2,0.3,0.4,0.4,0.6c0.1,0.1,0.1,0.2,0.2,0.3c0.1,0.2,0.3,0.5,0.4,0.8c0,0.1,0.1,0.2,0.1,0.3c0,0.1,0.1,0.2,0.1,0.3
		c0.1,0.2,0.1,0.4,0.2,0.5c0,0.1,0,0.2,0.1,0.3c0,0.2,0.1,0.4,0.1,0.6c0,0.1,0,0.2,0,0.3c0,0.3,0,0.5,0,0.8l-0.1,19.3l34.1,19.7
		c0.2,0.1,0.5,0.3,0.7,0.5c0.1,0.1,0.1,0.1,0.2,0.2c0.1,0.1,0.3,0.3,0.4,0.4c0.1,0.1,0.2,0.2,0.3,0.4c0.1,0.1,0.2,0.2,0.2,0.4
		c0.2,0.3,0.3,0.6,0.4,0.9c0.1,0.2,0.1,0.3,0.2,0.5c0,0.1,0.1,0.2,0.1,0.4c0,0.2,0.1,0.4,0.1,0.5c0,0.1,0.1,0.2,0.1,0.4
		c0,0.2,0.1,0.4,0.1,0.6c0,0.1,0,0.2,0,0.3c0,0.3,0,0.6,0,0.9l-0.2,53.8c0,0.3,0,0.5,0,0.7c0,0.1,0,0.1,0,0.2c0,0.2-0.1,0.3-0.1,0.5
		c0,0,0,0.1,0,0.1c-0.1,0.2-0.1,0.3-0.2,0.4c-0.1,0.1-0.1,0.1-0.2,0.2c-0.1,0-0.1,0.1-0.2,0.1l19.7-11.5c0,0,0,0,0,0
		c0,0,0.1-0.1,0.1-0.1c0.1-0.1,0.1-0.1,0.2-0.2c0,0,0,0,0,0c0.1-0.1,0.1-0.3,0.2-0.4c0,0,0-0.1,0-0.1
		C231,378.3,231.1,378.2,231.1,378z"/>
</g>
</svg>
